# xmcd
#
# Track frame offsets: 
#        150
#        25098
#        46248
#        68828
#        93023
#        109299
#        151266
#        169868
#        191591
#        206741
#        235842
#        258569
#
# Disc length: 3668 seconds
#
# Revision: 0
# Processed by: cddbd v1.5.2PL0 Copyright (c) Steve Scherf et al.
# Submitted via: ExactAudioCopy v0.99pb4
#
DISCID=9b0e520c
DTITLE=VA Blues Ballads - Blues Ballads
DYEAR=2009
DGENRE=Blues
TTITLE0=Mark Selby-Baby I Do
TTITLE1=Henrik Freischlader-IGive Up On Loving You
TTITLE2=Tony Joe White-Rainy Night in Georgia
TTITLE3=Timo Gross-Sweet Love
TTITLE4=Rudy Rotta-You're Gone
TTITLE5=Greg Koch and Other Bad Men-Stormy Monday
TTITLE6=The Mighty Orq-Blue Eyes
TTITLE7=Anders Osborne-Spotlight
TTITLE8=Al Deloner-Settle Down
TTITLE9=Innes Sibun-As The Years Go Passing By
TTITLE10=Steve Fister-Deeper Than The Blues
TTITLE11=Paddy Milner-I Live The Life I Love
EXTD=
EXTT0=
EXTT1=
EXTT2=
EXTT3=
EXTT4=
EXTT5=
EXTT6=
EXTT7=
EXTT8=
EXTT9=
EXTT10=
EXTT11=
PLAYORDER=
